<svg width="55" height="55" viewBox="0 0 55 55" fill="none" xmlns="http://www.w3.org/2000/svg">
<circle cx="27.5" cy="27.5" r="27.5" fill="#FF82E3"/>
<path d="M27.5 18.0721C30.5711 18.0721 30.9339 18.0844 32.146 18.1385C33.267 18.1894 33.8753 18.3763 34.2814 18.5338C34.8187 18.7422 35.2017 18.9908 35.6031 19.3938C36.0061 19.7968 36.2547 20.1797 36.4631 20.7155C36.6206 21.12 36.8075 21.7299 36.8584 22.8509C36.914 24.063 36.9248 24.4274 36.9248 27.4969C36.9248 30.568 36.9125 30.9309 36.8584 32.1429C36.8075 33.2639 36.6206 33.8722 36.4631 34.2783C36.2547 34.8157 36.0061 35.1986 35.6031 35.6C35.2001 36.003 34.8172 36.2516 34.2814 36.4601C33.8769 36.6175 33.267 36.8044 32.146 36.8553C30.9339 36.9109 30.5696 36.9217 27.5 36.9217C24.4305 36.9217 24.0661 36.9094 22.854 36.8553C21.733 36.8044 21.1247 36.6175 20.7186 36.4601C20.1813 36.2516 19.7983 36.003 19.3969 35.6C18.9939 35.197 18.7453 34.8141 18.5369 34.2783C18.3794 33.8738 18.1925 33.2639 18.1416 32.1429C18.086 30.9309 18.0752 30.5665 18.0752 27.4969C18.0752 24.4258 18.0875 24.063 18.1416 22.8509C18.1925 21.7299 18.3794 21.1216 18.5369 20.7155C18.7453 20.1782 18.9954 19.7952 19.3969 19.3938C19.7999 18.9908 20.1828 18.7422 20.7186 18.5338C21.1231 18.3763 21.733 18.1894 22.854 18.1385C24.0661 18.0844 24.4305 18.0721 27.5 18.0721ZM27.5 16C24.3764 16 23.9858 16.0139 22.7583 16.0695C21.5338 16.1251 20.6985 16.3196 19.9666 16.6037C19.2101 16.8971 18.5693 17.2908 17.93 17.93C17.2908 18.5693 16.8971 19.2101 16.6037 19.9666C16.3196 20.6985 16.1251 21.5338 16.0695 22.7583C16.0139 23.9842 16 24.3764 16 27.5C16 30.6236 16.0139 31.0142 16.0695 32.2417C16.1251 33.4662 16.3196 34.3015 16.6037 35.0334C16.8971 35.7899 17.2908 36.4307 17.93 37.07C18.5693 37.7092 19.2101 38.1029 19.9666 38.3963C20.6985 38.6804 21.5338 38.8749 22.7583 38.9305C23.9842 38.9861 24.3764 39 27.5 39C30.6236 39 31.0142 38.9861 32.2417 38.9305C33.4662 38.8749 34.3015 38.6804 35.0334 38.3963C35.7899 38.1029 36.4307 37.7092 37.07 37.07C37.7092 36.4307 38.1029 35.7899 38.3963 35.0334C38.6804 34.3015 38.8749 33.4662 38.9305 32.2417C38.9861 31.0158 39 30.6236 39 27.5C39 24.3764 38.9861 23.9858 38.9305 22.7583C38.8749 21.5338 38.6804 20.6985 38.3963 19.9666C38.1029 19.2101 37.7092 18.5693 37.07 17.93C36.4307 17.2908 35.7899 16.8971 35.0334 16.6037C34.3015 16.3196 33.4662 16.1251 32.2417 16.0695C31.0158 16.0139 30.6236 16 27.5 16Z" fill="white"/>
<path d="M27.5001 21.5942C24.2391 21.5942 21.5957 24.2376 21.5957 27.4986C21.5957 30.7597 24.2391 33.403 27.5001 33.403C30.7611 33.403 33.4045 30.7597 33.4045 27.4986C33.4045 24.2376 30.7627 21.5942 27.5001 21.5942ZM27.5001 31.3325C25.3832 31.3325 23.6678 29.6171 23.6678 27.5002C23.6678 25.3833 25.3832 23.6679 27.5001 23.6679C29.617 23.6679 31.3324 25.3833 31.3324 27.5002C31.334 29.6171 29.617 31.3325 27.5001 31.3325Z" fill="white"/>
<path d="M33.6392 22.7412C34.4015 22.7412 35.0195 22.1232 35.0195 21.3608C35.0195 20.5985 34.4015 19.9805 33.6392 19.9805C32.8768 19.9805 32.2588 20.5985 32.2588 21.3608C32.2588 22.1232 32.8768 22.7412 33.6392 22.7412Z" fill="white"/>
</svg>
