<svg width="55" height="55" viewBox="0 0 55 55" fill="none" xmlns="http://www.w3.org/2000/svg">
<circle cx="27.5" cy="27.5" r="27.5" fill="#82D2FF"/>
<path d="M16.3784 21.6386H21.147V37H16.3784V21.6386ZM18.7627 14C20.2873 14 21.5254 15.2401 21.5254 16.7672C21.5254 18.2958 20.2873 19.5359 18.7627 19.5359C17.235 19.5359 16 18.2958 16 16.7672C16 15.2416 17.235 14 18.7627 14Z" fill="white"/>
<path d="M24.137 21.6386H28.7108V23.7366H28.7762C29.4131 22.5293 30.9673 21.2549 33.2862 21.2549C38.1092 21.2549 39 24.4354 39 28.5737V37H34.2393V29.5299C34.2393 27.747 34.205 25.4556 31.7616 25.4556C29.2808 25.4556 28.9023 27.396 28.9023 29.4004V37H24.137V21.6386Z" fill="white"/>
</svg>
