<svg width="63" height="60" viewBox="0 0 63 60" fill="none" xmlns="http://www.w3.org/2000/svg">
<path d="M51.026 0.366122L10.6962 18.4191C8.48944 19.1735 8.55972 21.7492 10.193 22.3673L20.2994 26.0962L24.1648 40.1112C24.6343 41.6466 25.0194 42.2216 25.8206 42.2348C26.664 42.2481 26.9872 41.8859 27.8643 40.9686C28.8904 39.8287 30.4535 38.0373 32.9217 35.1991L43.4329 44.3818C45.367 45.6447 46.7642 44.99 47.2449 42.2581L53.8344 3.71947C54.54 0.372767 52.8757 -0.627587 51.026 0.366122ZM21.8849 25.2388L44.8582 8.19948C45.9911 7.30215 46.3453 8.3025 45.8336 8.99377L26.768 29.2701L25.7897 39.39L21.8849 25.2388Z" fill="#63ADF1"/>
<rect y="57" width="63" height="3" fill="#63ADF1"/>
</svg>
