<svg width="55" height="55" viewBox="0 0 55 55" fill="none" xmlns="http://www.w3.org/2000/svg">
<circle cx="27.5" cy="27.5" r="27.5" fill="#82ACFF"/>
<path fill-rule="evenodd" clip-rule="evenodd" d="M25.7195 38.9029H28.129C28.129 38.9029 28.8572 38.8229 29.2297 38.4231C29.5727 38.0548 29.56 37.3646 29.56 37.3646C29.56 37.3646 29.5137 34.1322 31.0142 33.6545C32.4936 33.1852 34.3939 36.7796 36.4057 38.1622C37.9293 39.2081 39.0846 38.9787 39.0846 38.9787L44.4677 38.9029C44.4677 38.9029 47.2834 38.7283 45.9492 36.5144C45.8398 36.3334 45.1706 34.8772 41.9466 31.8826C38.5711 28.7491 39.0236 29.2563 43.0893 23.8374C45.5662 20.5377 46.5553 18.5217 46.2459 17.6589C45.9513 16.8361 44.1289 17.0528 44.1289 17.0528L38.0682 17.0907C38.0682 17.0907 37.6178 17.0297 37.2853 17.2296C36.9592 17.4253 36.7508 17.8798 36.7508 17.8798C36.7508 17.8798 35.7912 20.4346 34.5117 22.6063C31.8118 27.1898 30.7322 27.4318 30.2924 27.1477C29.2654 26.4848 29.5222 24.4835 29.5222 23.0609C29.5222 18.6185 30.1956 16.7666 28.2111 16.2868C27.5524 16.1269 27.0663 16.0237 25.3807 16.0048C23.2173 15.9838 21.3865 16.0111 20.3511 16.5204C19.6609 16.8571 19.1285 17.6105 19.4547 17.6547C19.8545 17.7073 20.7615 17.8988 21.2434 18.5533C21.8642 19.3992 21.8432 21.2953 21.8432 21.2953C21.8432 21.2953 22.2009 26.5248 21.0098 27.1729C20.1933 27.6191 19.0717 26.71 16.6663 22.5495C15.4331 20.4199 14.503 18.065 14.503 18.065C14.503 18.065 14.3241 17.6252 14.0042 17.3895C13.6149 17.1033 13.0741 17.0128 13.0741 17.0128L7.3143 17.0507C7.3143 17.0507 6.44939 17.0739 6.13163 17.4505C5.84963 17.7851 6.10848 18.4775 6.10848 18.4775C6.10848 18.4775 10.6182 29.029 15.7235 34.3448C20.4037 39.2228 25.7195 38.9029 25.7195 38.9029Z" fill="white"/>
</svg>
