<svg width="80" height="80" viewBox="0 0 80 80" fill="none" xmlns="http://www.w3.org/2000/svg">
<g clip-path="url(#clip0)">
<path d="M75.2247 46.5009C72.4989 43.7507 68.8965 42.0758 65.0727 41.722C68.3736 38.7522 70.4563 34.4648 70.4563 29.6755C70.4563 20.7155 63.1956 13.4548 54.2339 13.4548C45.6748 13.4548 38.6668 20.0846 38.0586 28.4869C45.6731 31.7808 51.0166 39.3692 51.0166 48.1792C51.0166 51.3965 50.2846 54.5406 48.9235 57.3937C50.8842 58.4185 52.6915 59.743 54.267 61.3325C58.3069 65.4003 60.6023 71.0244 60.5587 76.7584L60.5552 76.8752L60.5517 76.9745L60.4088 79.6881H79.8398L80.0001 58.1989C80.0332 53.8156 78.3165 49.6119 75.2247 46.5009Z" fill="#53C3BD"/>
<path d="M40.4059 60.2292C43.7051 57.2611 45.7948 52.972 45.7948 48.1826C45.7948 39.2209 38.5306 31.9585 29.5707 31.9585C20.6089 31.9585 13.3465 39.2209 13.3465 48.1826C13.3465 52.9632 15.4275 57.2489 18.7214 60.2187C10.2861 60.8723 3.6232 67.8576 3.5622 76.4585L3.40186 79.688H28.0683H55.1748L55.3351 76.7008C55.3665 72.3193 53.648 68.1155 50.558 65.0046C47.8287 62.2526 44.228 60.583 40.4059 60.2292Z" fill="#53C3BD"/>
<path d="M10.464 19.8231V25.8499C10.464 28.3456 12.4927 30.3726 14.9902 30.3726C17.4912 30.3726 19.5164 28.3456 19.5164 25.8499V19.8231H25.5361C28.0336 19.8231 30.0606 17.7945 30.0606 15.297C30.0606 12.8012 28.0336 10.7726 25.5361 10.7726H19.5164V4.83469C19.5164 2.3372 17.4912 0.312012 14.9902 0.312012C12.4927 0.312012 10.464 2.3372 10.464 4.83469V10.7708H4.52442C2.02344 10.7708 0 12.7995 0 15.2952C0 17.7927 2.02344 19.8214 4.52442 19.8214H10.464V19.8231Z" fill="#53C3BD"/>
</g>
<defs>
<clipPath id="clip0">
<rect width="80" height="80" fill="white"/>
</clipPath>
</defs>
</svg>
