<svg width="80" height="80" viewBox="0 0 80 80" fill="none" xmlns="http://www.w3.org/2000/svg">
<g clip-path="url(#clip0)">
<path d="M34.2857 72.8572C35.4691 72.8572 36.4285 71.8978 36.4285 70.7144C36.4285 69.5309 35.4691 68.5715 34.2857 68.5715C33.1022 68.5715 32.1428 69.5309 32.1428 70.7144C32.1428 71.8978 33.1022 72.8572 34.2857 72.8572Z" fill="#53C3BD"/>
<path d="M22.5514 17.4144L12.3571 10.1472L11.8628 13.3044L19.7299 18.9115L22.5514 17.4144Z" fill="#53C3BD"/>
<path d="M27.2856 17.2772L43.5471 28.8686L59.8071 40.4615C67.1814 29.1186 66.32 15.2801 57.6457 9.09435C48.9714 2.90863 35.5971 6.6072 27.2856 17.2772Z" fill="#53C3BD"/>
<path d="M22.0515 56.5514L22.0386 56.5686L15.0115 66.4257C14.5535 67.0683 14.7031 67.9606 15.3458 68.4186C15.9884 68.8766 16.8806 68.7269 17.3386 68.0843L39.7286 36.6786L37.4015 35.02L22.0515 56.5514Z" fill="#53C3BD"/>
<path d="M47.1428 3.30143C42.2311 1.22363 36.9677 0.10308 31.6356 0H31.4285C23.6842 0 17.3313 2.59143 13.3428 7.34143L24.9756 15.6343C30.9199 7.96429 39.2742 3.57857 47.1428 3.30143Z" fill="#53C3BD"/>
<path d="M60.4286 7.6371L62.9443 4.1071C63.1639 3.8071 63.2512 3.43025 63.1857 3.06424C63.1346 2.68226 62.9278 2.33844 62.6143 2.11424C62.3051 1.89572 61.9218 1.80888 61.5486 1.87281C61.1758 1.93133 60.8422 2.13725 60.6229 2.44424L58.1057 5.97853C58.5014 6.24567 58.9057 6.48853 59.2971 6.7671C59.6886 7.04567 60.05 7.34996 60.4286 7.6371Z" fill="#53C3BD"/>
<path d="M60.7185 48.1328L68.5856 53.7413L71.4071 52.2442L61.2142 44.9771L60.7185 48.1328Z" fill="#53C3BD"/>
<path d="M74.7142 30.7142C72.878 25.7081 70.1031 21.0985 66.5384 17.1328C68.8399 24.6614 67.4184 33.9899 62.1099 42.1071L73.7427 50.3999C76.957 45.0299 77.3127 38.1014 74.7142 30.7142Z" fill="#53C3BD"/>
<path d="M54.6258 43.7901L57.4487 42.2929L41.8829 31.1958L26.3158 20.0986L25.8201 23.2543L37.8929 31.8615L37.8972 31.8629L41.1415 34.1772L54.6258 43.7901Z" fill="#53C3BD"/>
<path d="M36.5 55.7141C34.1657 55.7141 31.7985 55.8255 29.4471 56.0213L19.6657 69.7441C18.2917 71.672 15.615 72.121 13.6871 70.747C11.7592 69.373 11.3102 66.6963 12.6843 64.7684L17.4814 58.0384C8.96425 60.3498 3.64282 64.0527 3.64282 67.857C3.64282 73.7141 16.8457 79.9998 36.5 79.9998C56.1543 79.9998 69.3571 73.7141 69.3571 67.857C69.3571 61.9998 56.1543 55.7141 36.5 55.7141ZM34.2857 75.7141C31.5243 75.7141 29.2857 73.4755 29.2857 70.7141C29.2857 67.9527 31.5243 65.7141 34.2857 65.7141C37.0471 65.7141 39.2857 67.9527 39.2857 70.7141C39.2857 73.4755 37.0471 75.7141 34.2857 75.7141ZM47.8571 68.5712C47.0681 68.5712 46.4285 67.9317 46.4285 67.1427C46.4285 66.3537 47.0681 65.7141 47.8571 65.7141C48.6461 65.7141 49.2857 66.3537 49.2857 67.1427C49.2857 67.9317 48.6461 68.5712 47.8571 68.5712ZM50.7143 64.2855C49.9253 64.2855 49.2857 63.6459 49.2857 62.857C49.2857 62.068 49.9253 61.4284 50.7143 61.4284C51.5032 61.4284 52.1428 62.068 52.1428 62.857C52.1428 63.6459 51.5032 64.2855 50.7143 64.2855ZM55 67.1427C54.211 67.1427 53.5714 66.5031 53.5714 65.7141C53.5714 64.9251 54.211 64.2855 55 64.2855C55.7889 64.2855 56.4285 64.9251 56.4285 65.7141C56.4285 66.5031 55.7889 67.1427 55 67.1427Z" fill="#53C3BD"/>
</g>
<defs>
<clipPath id="clip0">
<rect width="80" height="80" fill="white"/>
</clipPath>
</defs>
</svg>
