<svg width="80" height="80" viewBox="0 0 80 80" fill="none" xmlns="http://www.w3.org/2000/svg">
<path d="M32.9688 80V72.8125C27.7983 72.8125 23.5938 68.608 23.5938 63.4375C23.5938 58.267 27.7983 54.0625 32.9688 54.0625V47.0312H19.8675L20.9822 43.9002C21.1608 43.4034 21.25 42.8794 21.25 42.3438C21.25 39.7597 19.1466 37.6562 16.5625 37.6562C13.9784 37.6562 11.875 39.7597 11.875 42.3438C11.875 42.8794 11.9642 43.4034 12.1428 43.9002L13.2575 47.0312H0C1.16297 64.5456 15.4544 78.837 32.9688 80Z" fill="#53C3BD"/>
<path d="M16.5625 32.9687C21.733 32.9687 25.9375 37.1732 25.9375 42.3437H32.9688V29.2424L36.0998 30.3571C38.9861 31.3848 42.3414 29.0548 42.3438 25.9374C42.3414 22.8177 38.9883 20.4694 36.0998 21.5177L32.9688 22.6324V9.6499C15.4544 10.8129 1.16297 24.8293 0 42.3437H7.1875C7.1875 37.1732 11.392 32.9687 16.5625 32.9687Z" fill="#53C3BD"/>
<path d="M70.35 47.0312H63.4375C63.4375 52.2017 59.233 56.4062 54.0625 56.4062C48.892 56.4062 44.6875 52.2017 44.6875 47.0312H37.6563V60.1325L34.5252 59.0178C31.6275 57.9764 28.2789 60.3178 28.2813 63.4375C28.2789 66.5572 31.6298 68.8986 34.5252 67.8572L37.6563 66.7425V80C55.1706 78.837 69.187 64.5456 70.35 47.0312Z" fill="#53C3BD"/>
<path d="M70.4688 18.9062V9.53125H61.0938C61.0938 4.36078 56.8892 0 51.7188 0C46.5483 0 42.3438 4.36078 42.3438 9.53125H37.6562V16.5625C42.8267 16.5625 47.0312 20.767 47.0312 25.9375C47.0312 31.108 42.8267 35.3125 37.6562 35.3125V42.3438H50.7575L49.6428 45.4748C49.4642 45.9716 49.375 46.4956 49.375 47.0312C49.375 49.6153 51.4784 51.7188 54.0625 51.7188C56.6466 51.7188 58.75 49.6153 58.75 47.0312C58.75 46.4956 58.6608 45.9716 58.4822 45.4748L57.3675 42.3438H70.4688V37.6562C75.6392 37.6562 80 33.4517 80 28.2812C80 23.1108 75.6392 18.9062 70.4688 18.9062Z" fill="#53C3BD"/>
</svg>
