<svg width="123" height="123" viewBox="0 0 123 123" fill="none" xmlns="http://www.w3.org/2000/svg">
<g opacity="0.8">
<path d="M33.7139 36.8042C38.071 36.8042 41.6032 33.2663 41.6032 28.9021C41.6032 24.5379 38.071 21 33.7139 21C29.3568 21 25.8247 24.5379 25.8247 28.9021C25.8247 33.2663 29.3568 36.8042 33.7139 36.8042Z" fill="#53C3BD"/>
<path d="M24.912 64.4935H25.6944V80.1671C25.6944 82.3229 27.4548 84.0855 29.6064 84.0855H37.8217C39.9733 84.0855 41.7337 82.3229 41.7337 80.1671V79.2534C41.0165 77.8814 40.5601 76.3147 40.5601 74.682V54.1757C40.5601 50.192 42.9725 46.7307 46.4281 45.2287V43.6613C46.4281 41.5062 44.6677 39.7429 42.5161 39.7429H24.912C22.7604 39.7429 21 41.5062 21 43.6613V60.5757C21 62.7309 22.6952 64.4935 24.912 64.4935Z" fill="#53C3BD"/>
<path d="M88.3519 36.8042C92.709 36.8042 96.2411 33.2663 96.2411 28.9021C96.2411 24.5379 92.709 21 88.3519 21C83.9948 21 80.4626 24.5379 80.4626 28.9021C80.4626 33.2663 83.9948 36.8042 88.3519 36.8042Z" fill="#53C3BD"/>
<path d="M75.572 43.5961V45.1635C79.0283 46.6655 81.44 50.1268 81.44 54.1105V74.5515C81.44 76.1842 81.0488 77.7515 80.2671 79.123V80.0372C80.2671 82.1924 82.0268 83.9557 84.1791 83.9557H92.3943C94.5459 83.9557 96.3063 82.1924 96.3063 80.0372V64.3637H97.0881C99.2403 64.3637 101 62.6004 101 60.4453V43.5961C101 41.441 99.2403 39.6777 97.0881 39.6777H79.484C77.3331 39.6777 75.572 41.4404 75.572 43.5961Z" fill="#53C3BD"/>
<path d="M46.4932 54.1751V60.5751V74.6814C46.4932 76.8365 48.2536 78.5998 50.4052 78.5998H51.9048V97.0815C51.9048 99.2367 53.6652 101 55.8168 101H66.314C68.4656 101 70.226 99.2367 70.226 97.0815V78.5344H71.7256C73.8773 78.5344 75.6377 76.7718 75.6377 74.616V60.5758V54.1757C75.6377 52.0206 73.8773 50.2573 71.7256 50.2573H50.4052C48.1884 50.2567 46.4932 52.0206 46.4932 54.1751Z" fill="#53C3BD"/>
<path d="M61.033 46.9922C66.0383 46.9922 70.0959 42.928 70.0959 37.9145C70.0959 32.9011 66.0383 28.8369 61.033 28.8369C56.0278 28.8369 51.9702 32.9011 51.9702 37.9145C51.9702 42.928 56.0278 46.9922 61.033 46.9922Z" fill="#53C3BD"/>
</g>
</svg>
