<svg width="80" height="80" viewBox="0 0 80 80" fill="none" xmlns="http://www.w3.org/2000/svg">
<path d="M12.7139 15.8042C17.071 15.8042 20.6032 12.2663 20.6032 7.90211C20.6032 3.53789 17.071 0 12.7139 0C8.35683 0 4.82471 3.53789 4.82471 7.90211C4.82471 12.2663 8.35683 15.8042 12.7139 15.8042Z" fill="#53C3BD"/>
<path d="M3.91201 43.4935H4.69442V59.1671C4.69442 61.3229 6.45482 63.0855 8.60643 63.0855H16.8217C18.9733 63.0855 20.7337 61.3229 20.7337 59.1671V58.2534C20.0165 56.8814 19.5601 55.3147 19.5601 53.682V33.1757C19.5601 29.192 21.9725 25.7307 25.4281 24.2287V22.6613C25.4281 20.5062 23.6677 18.7429 21.5161 18.7429H3.91201C1.76041 18.7429 0 20.5062 0 22.6613V39.5757C0 41.7309 1.69521 43.4935 3.91201 43.4935Z" fill="#53C3BD"/>
<path d="M67.3519 15.8042C71.709 15.8042 75.2411 12.2663 75.2411 7.90211C75.2411 3.53789 71.709 0 67.3519 0C62.9948 0 59.4626 3.53789 59.4626 7.90211C59.4626 12.2663 62.9948 15.8042 67.3519 15.8042Z" fill="#53C3BD"/>
<path d="M54.572 22.5961V24.1635C58.0283 25.6655 60.44 29.1268 60.44 33.1105V53.5515C60.44 55.1842 60.0488 56.7515 59.2671 58.123V59.0372C59.2671 61.1924 61.0268 62.9557 63.1791 62.9557H71.3943C73.5459 62.9557 75.3063 61.1924 75.3063 59.0372V43.3637H76.0881C78.2403 43.3637 80.0001 41.6004 80.0001 39.4453V22.5961C80.0001 20.441 78.2403 18.6777 76.0881 18.6777H58.484C56.3331 18.6777 54.572 20.4404 54.572 22.5961Z" fill="#53C3BD"/>
<path d="M25.4932 33.1751V39.5751V53.6814C25.4932 55.8365 27.2536 57.5998 29.4052 57.5998H30.9048V76.0815C30.9048 78.2367 32.6652 79.9999 34.8168 79.9999H45.314C47.4656 79.9999 49.226 78.2367 49.226 76.0815V57.5344H50.7256C52.8773 57.5344 54.6377 55.7718 54.6377 53.616V39.5758V33.1757C54.6377 31.0206 52.8773 29.2573 50.7256 29.2573H29.4052C27.1884 29.2567 25.4932 31.0206 25.4932 33.1751Z" fill="#53C3BD"/>
<path d="M40.033 25.9922C45.0383 25.9922 49.0959 21.928 49.0959 16.9145C49.0959 11.9011 45.0383 7.83691 40.033 7.83691C35.0278 7.83691 30.9702 11.9011 30.9702 16.9145C30.9702 21.928 35.0278 25.9922 40.033 25.9922Z" fill="#53C3BD"/>
</svg>
