<svg width="80" height="80" viewBox="0 0 80 80" fill="none" xmlns="http://www.w3.org/2000/svg">
<path d="M73.2239 17.7437L72.0271 18.1232L65.6533 18.691L63.8529 21.566L62.5466 21.1509L57.474 16.5775L56.7381 14.199L55.7526 11.6628L52.5644 8.80307L48.8033 8.06714L48.7167 9.78855L52.4014 13.3842L54.2043 15.5079L52.1773 16.5673L50.5272 16.0809L48.0546 15.0496L48.1386 13.0557L44.8944 11.7213L43.8173 16.4094L40.5476 17.1504L40.871 19.7656L45.1312 20.5856L45.8672 16.4068L49.3838 16.9263L51.0187 17.8838H53.6416L55.4368 21.4794L60.1962 26.3075L59.8473 28.1843L56.0098 27.6954L49.3788 31.044L44.6041 36.771L43.9828 39.3073H42.269L39.0757 37.8354L35.9741 39.3073L36.7457 42.5795L38.0953 41.0236L40.4686 40.9497L40.3031 43.8884L42.269 44.4639L44.2323 46.6691L47.4383 45.7677L51.1002 46.3457L55.3528 47.4891L57.4765 47.7386L61.0773 51.8257L68.0266 55.9128L63.5321 64.4995L58.788 66.7048L56.9876 71.6118L50.1223 76.1955L49.3915 78.8387C66.9418 74.6116 79.9976 58.8464 79.9976 39.9974C79.9925 31.7646 77.4969 24.1023 73.2239 17.7437Z" fill="#53C3BD"/>
<path d="M44.6015 60.9039L41.6884 55.5028L44.3622 49.9311L41.6884 49.1315L38.6861 46.1165L32.0347 44.6243L29.8269 40.005V42.7475H28.8542L23.122 34.9757V28.5917L18.9204 21.7595L12.2486 22.9487H7.75408L5.49281 21.4667L8.37796 19.1799L5.50045 19.8446C2.03215 25.7677 0.0102539 32.6406 0.0102539 40.0024C0.0102539 62.088 17.9145 79.9999 40.0026 79.9999C41.7037 79.9999 43.3716 79.8497 45.0217 79.651L44.6041 74.8051C44.6041 74.8051 46.4401 67.6088 46.4401 67.3643C46.4375 67.1173 44.6015 60.9039 44.6015 60.9039Z" fill="#53C3BD"/>
<path d="M14.8715 12.8979L21.9762 11.9073L25.2509 10.112L28.9357 11.1739L34.8231 10.848L36.8399 7.67762L39.7811 8.16145L46.924 7.49172L48.8924 5.32213L51.668 3.4683L55.5947 4.05908L57.0258 3.84263C51.8539 1.4082 46.0989 0 40.0001 0C27.5861 0 16.486 5.65826 9.15723 14.5429H9.1776L14.8715 12.8979ZM41.691 3.97759L45.7755 1.72906L48.3984 3.24421L44.6016 6.13445L40.9754 6.4986L39.3431 5.43927L41.691 3.97759ZM29.5927 4.30609L31.3956 5.0573L33.7562 4.30609L35.0421 6.53425L29.5927 7.96537L26.9724 6.43239C26.9698 6.43239 29.5341 4.78228 29.5927 4.30609Z" fill="#53C3BD"/>
</svg>
