<svg width="42" height="14" viewBox="0 0 42 14" fill="none" xmlns="http://www.w3.org/2000/svg">
<path d="M3.108 5.36857C3.689 4.60836 4.613 4.12398 5.649 4.12398L5.887 4.13071H5.88C7.819 4.13071 9.331 5.43585 9.331 7.60211V13.7376H6.23V8.65161C6.23 7.54829 5.635 6.93609 4.69 6.93609C3.829 6.93609 3.108 7.50793 3.108 8.71216V13.7376H0V0H3.108V5.36857ZM21.196 13.7444H18.214V12.7285C17.598 13.5022 16.639 13.9933 15.561 13.9933H15.407H15.414C12.817 13.9933 10.892 11.8203 10.892 9.05526C10.892 6.29025 12.817 4.13743 15.428 4.13743H15.561C16.639 4.13743 17.605 4.62854 18.214 5.39548L18.221 5.40221V4.39308H21.203V13.7444H21.196ZM14.042 9.06199C14.042 10.172 14.973 11.0668 16.128 11.0668C17.283 11.0668 18.214 10.172 18.214 9.06199C18.214 7.95195 17.283 7.05718 16.128 7.05718C14.973 7.05718 14.042 7.95195 14.042 9.06199ZM33.628 9.05526C33.628 11.8136 31.696 13.9933 29.099 13.9933L28.945 14C27.874 14 26.922 13.5156 26.32 12.7554L26.313 12.7487V13.7511H23.331V0H26.432V5.28784C27.041 4.58145 27.958 4.13743 28.973 4.13743H29.12H29.113C31.696 4.13743 33.628 6.29697 33.628 9.05526ZM26.285 9.05526C26.285 10.1653 27.216 11.0601 28.371 11.0601C29.526 11.0601 30.457 10.1653 30.457 9.05526C30.457 7.94522 29.526 7.05046 28.371 7.05046C27.216 7.05046 26.285 7.94522 26.285 9.05526ZM41.972 4.27871L41.706 7.25228C41.244 7.10428 40.712 7.01009 40.152 7.00336H40.145C40.075 6.99664 39.998 6.98991 39.921 6.98991C39.053 6.98991 38.346 7.66939 38.346 8.5036C38.346 8.57088 38.353 8.63143 38.36 8.6987V8.69198V13.7511H35.252V4.39981H38.234V5.47621C38.745 4.66891 39.655 4.13743 40.698 4.13743L40.901 4.14416H40.894H40.901C41.286 4.14416 41.65 4.19798 42 4.29217L41.972 4.27871Z" fill="#959595"/>
</svg>
