<svg width="23" height="23" viewBox="0 0 23 23" fill="none" xmlns="http://www.w3.org/2000/svg">
<path d="M0.378431 7.63859H5.14696V23H0.378431V7.63859ZM2.7627 0C4.28732 0 5.52539 1.24008 5.52539 2.76718C5.52539 4.29583 4.28732 5.53591 2.7627 5.53591C1.23496 5.53591 0 4.29583 0 2.76718C0 1.24164 1.23496 0 2.7627 0Z" fill="#959595"/>
<path d="M8.13672 7.6386H12.7105V9.73661H12.776C13.4129 8.52928 14.9671 7.25488 17.2859 7.25488C22.1089 7.25488 22.9997 10.4354 22.9997 14.5737V23H18.239V15.5299C18.239 13.747 18.2048 11.4556 15.7613 11.4556C13.2805 11.4556 12.9021 13.396 12.9021 15.4004V23H8.13672V7.6386Z" fill="#959595"/>
</svg>
