<svg width="45" height="45" viewBox="0 0 45 45" fill="none" xmlns="http://www.w3.org/2000/svg">
<path d="M42.026 0.366122L1.69624 18.4191C-0.510562 19.1735 -0.440284 21.7492 1.19303 22.3673L11.2994 26.0962L15.1648 40.1112C15.6343 41.6466 16.0194 42.2216 16.8206 42.2348C17.664 42.2481 17.9872 41.8859 18.8643 40.9686C19.8904 39.8287 21.4535 38.0373 23.9217 35.1991L34.4329 44.3818C36.367 45.6447 37.7642 44.99 38.2449 42.2581L44.8344 3.71947C45.54 0.372767 43.8757 -0.627587 42.026 0.366122ZM12.8849 25.2388L35.8582 8.19948C36.9911 7.30215 37.3453 8.3025 36.8336 8.99377L17.768 29.2701L16.7897 39.39L12.8849 25.2388Z" fill="#53C3BD"/>
</svg>
