<svg width="23" height="23" viewBox="0 0 23 23" fill="none" xmlns="http://www.w3.org/2000/svg">
<path fill-rule="evenodd" clip-rule="evenodd" d="M11.7084 0C5.47191 0 0.416767 5.01591 0.416767 11.204C0.416767 13.3207 1.00893 15.3006 2.03735 16.9889L0 23L6.25147 21.0142C7.86905 21.9022 9.7295 22.408 11.7084 22.408C17.9449 22.408 23 17.3906 23 11.204C23 5.0174 17.9449 0 11.7084 0ZM11.7084 20.5322C9.79996 20.5322 8.02197 19.964 6.53631 18.9897L2.92335 20.1365L4.09718 16.6736C2.97132 15.1355 2.3072 13.2463 2.3072 11.2055C2.3072 6.06164 6.52431 1.87725 11.7069 1.87725C16.891 1.87725 21.1066 6.06164 21.1066 11.2055C21.1081 16.3478 16.891 20.5322 11.7084 20.5322ZM17.0019 13.7506C16.7186 13.5974 15.3288 12.8522 15.068 12.7465C14.8071 12.6409 14.6167 12.5874 14.4144 12.8655C14.212 13.1437 13.6348 13.767 13.4594 13.9529C13.284 14.1374 13.1146 14.1552 12.8312 14.0005C12.5494 13.8473 11.6319 13.5096 10.5675 12.4951C9.74 11.7053 9.1958 10.7473 9.03839 10.4558C8.88098 10.1627 9.03689 10.014 9.18681 9.87712C9.32173 9.75365 9.48814 9.55284 9.63805 9.39219C9.78797 9.23005 9.84044 9.11402 9.94388 8.9266C10.0473 8.73917 10.0053 8.57108 9.93938 8.4253C9.87192 8.27953 9.34872 6.85151 9.13134 6.26989C8.91247 5.68827 8.6696 5.77454 8.5017 5.76859C8.33379 5.76264 8.1419 5.73141 7.95001 5.72397C7.75812 5.71653 7.44329 5.77752 7.16745 6.05271C6.89311 6.32939 6.12104 6.99282 6.06857 8.4015C6.0161 9.80869 6.99655 11.207 7.13297 11.4018C7.26939 11.5982 9.00691 14.6491 11.8928 15.9031C14.7801 17.157 14.7951 16.7747 15.3243 16.7465C15.855 16.7182 17.0559 16.1173 17.3212 15.4598C17.5866 14.8008 17.6075 14.2281 17.5401 14.1061C17.4741 13.9827 17.2852 13.9038 17.0019 13.7506Z" fill="#959595"/>
</svg>
