<svg width="166" height="227" viewBox="0 0 166 227" fill="none" xmlns="http://www.w3.org/2000/svg">
<path d="M75.1261 28.2563C82.6077 28.2563 88.6727 21.9702 88.6727 14.216C88.6727 6.46177 82.6077 0.17572 75.1261 0.17572C67.6446 0.17572 61.5796 6.46177 61.5796 14.216C61.5796 21.9702 67.6446 28.2563 75.1261 28.2563Z" fill="white"/>
<path d="M119.349 147.122C120.245 148.321 121.212 150.455 122.245 153.524C123.271 156.593 123.722 159.459 123.598 162.122C120.127 164.256 116.133 166.39 111.636 168.518C107.132 170.652 102.788 172.589 98.6111 174.317C94.4279 176.045 90.9211 177.38 88.0967 178.315C84.7501 177.244 81.0831 175.578 77.1017 173.315C73.1142 171.051 69.5422 168.352 66.3914 165.215C63.2406 162.085 61.2113 158.918 60.3153 155.714L64.5579 98.5253L49.7 101.526L44.876 87.929L64.7478 70.1311L63.3949 54.1351C65.5785 51.7367 68.219 49.369 71.3045 47.0381C74.39 44.7073 77.3509 42.9361 80.1812 41.7369L87.3194 46.9336L86.548 74.7313C91.8231 74.2024 97.2583 73.8641 102.854 73.7288C108.449 73.5997 114.009 73.7965 119.539 74.3315L121.468 90.3275L115.486 96.7296C105.197 95.9301 95.3536 95.7271 85.9665 96.1269C85.0646 102.123 84.4238 108.66 84.0381 115.727C83.6524 122.793 83.6524 129.761 84.0381 136.624C84.4238 143.494 85.3198 149.791 86.7379 155.523L119.349 147.122Z" fill="#53C3BD"/>
<path d="M7.72562 225.001V196.576H0V194.405H18.1748V196.576H10.6746V225.001H7.72562Z" fill="#767878"/>
<path d="M129.307 225.001V194.405H132.315V208.218H135.039L143.274 194.405H146.396L137.762 209.171L146.734 225.001H143.613L135.039 210.075H132.315V225.001H129.307Z" fill="#767878"/>
<path d="M155.942 225.472C154.619 225.472 153.462 225.189 152.477 224.623C151.492 224.057 150.726 223.276 150.174 222.268C149.623 221.259 149.35 220.109 149.35 218.799C149.35 217.495 149.528 216.358 149.89 215.386C150.252 214.414 150.904 213.504 151.848 212.662C152.791 211.813 154.15 210.921 155.906 209.986C157.669 209.052 159.947 207.969 162.748 206.733V204.562C162.748 202.336 162.605 200.608 162.321 199.372C162.036 198.136 161.561 197.275 160.902 196.776C160.238 196.284 159.342 196.032 158.203 196.032C157.33 196.032 156.5 196.174 155.705 196.457C154.909 196.739 154.257 197.293 153.746 198.123C153.236 198.953 152.981 200.177 152.981 201.801V202.594H150.026C150.026 199.667 150.661 197.484 151.931 196.057C153.201 194.63 155.331 193.911 158.321 193.911C161.086 193.911 163.015 194.722 164.113 196.346C165.21 197.969 165.762 200.602 165.762 204.236V219.642C165.762 219.925 165.774 220.46 165.792 221.253C165.81 222.046 165.827 222.815 165.851 223.553C165.869 224.297 165.899 224.771 165.934 224.98H163.323C163.246 224.236 163.151 223.461 163.039 222.649C162.926 221.837 162.849 221.253 162.813 220.903C162.321 222.176 161.466 223.252 160.256 224.131C159.045 225.035 157.609 225.472 155.942 225.472ZM156.684 223.147C157.627 223.147 158.481 222.944 159.241 222.538C160.001 222.132 160.677 221.604 161.288 220.952C161.893 220.3 162.386 219.605 162.766 218.861V208.799C160.76 209.79 159.081 210.632 157.74 211.339C156.393 212.047 155.337 212.717 154.559 213.35C153.782 213.984 153.224 214.697 152.886 215.497C152.548 216.296 152.376 217.256 152.376 218.381C152.376 220.214 152.833 221.468 153.741 222.139C154.636 222.809 155.621 223.147 156.684 223.147Z" fill="#767878"/>
<path d="M34.2788 224.316L34.2314 222.458C34.2136 221.819 34.2076 221.388 34.2076 221.161V208.738C34.2076 205.761 33.7448 203.566 32.831 202.219C31.8935 200.835 30.2499 200.134 27.9358 200.134C25.4555 200.134 23.6576 200.749 22.5836 201.955C21.5155 203.154 20.9756 204.993 20.9756 207.416V207.699H23.8949V206.776C23.8949 205.528 24.0908 204.581 24.4705 203.96C24.8503 203.351 25.3309 202.933 25.9124 202.73C26.5235 202.514 27.1703 202.404 27.8408 202.404C28.6953 202.404 29.3717 202.588 29.8583 202.951C30.3389 203.308 30.689 203.96 30.8967 204.882C31.1221 205.854 31.2349 207.237 31.2349 209.003V210.571C29.0572 211.536 27.2474 212.397 25.8649 213.129C24.429 213.892 23.3075 214.63 22.5361 215.325C21.741 216.038 21.1833 216.813 20.8806 217.637C20.578 218.449 20.4297 219.408 20.4297 220.491C20.4297 221.585 20.667 222.575 21.1299 223.424C21.5927 224.279 22.2573 224.955 23.088 225.429C23.9187 225.902 24.9037 226.148 26.0132 226.148C27.4077 226.148 28.63 225.773 29.6506 225.029C30.3923 224.488 30.9797 223.855 31.401 223.135C31.4247 223.289 31.4426 223.461 31.4722 223.645C31.5612 224.297 31.6384 224.918 31.6977 225.515L31.7214 225.767H34.3975L34.3382 225.435C34.3263 225.318 34.2966 225.035 34.2788 224.316ZM26.6126 223.701C25.8174 223.701 25.0698 223.443 24.3874 222.944C23.7347 222.465 23.4024 221.518 23.4024 220.14C23.4024 219.273 23.533 218.529 23.7941 217.926C24.0492 217.329 24.4764 216.782 25.0639 216.302C25.6691 215.804 26.5176 215.269 27.5857 214.71C28.5707 214.193 29.8049 213.566 31.2467 212.852V220.448C30.956 220.995 30.5822 221.524 30.1312 222.01C29.6684 222.514 29.1344 222.926 28.5529 223.233C27.9773 223.547 27.3246 223.701 26.6126 223.701Z" fill="#767878"/>
<path d="M41.7796 212.005C41.566 214.52 41.3227 216.58 41.0497 218.124C40.7827 219.655 40.4504 220.836 40.0648 221.635C39.6969 222.398 39.24 222.927 38.7 223.197C38.1423 223.48 37.4421 223.634 36.6351 223.659L36.374 223.665V225.965H37.1039C38.3618 225.965 39.4298 225.75 40.2902 225.319C41.1625 224.883 41.8805 224.126 42.4263 223.062C42.9544 222.029 43.3876 220.602 43.7139 218.819C44.0344 217.06 44.3192 214.784 44.5625 212.048L45.3635 202.823H51.3031V225.744H54.2699V200.51H42.7586L41.7796 212.005Z" fill="#767878"/>
<path d="M71.8809 224.316L71.8334 222.458C71.8156 221.819 71.8097 221.388 71.8097 221.161V208.738C71.8097 205.761 71.3469 203.566 70.4331 202.219C69.4956 200.835 67.8519 200.134 65.5378 200.134C63.0575 200.134 61.2596 200.749 60.1857 201.955C59.1176 203.154 58.5776 204.993 58.5776 207.416V207.699H61.497V206.776C61.497 205.528 61.6928 204.581 62.0726 203.96C62.4523 203.351 62.9329 202.932 63.5144 202.73C64.1256 202.514 64.7724 202.404 65.4429 202.404C66.2973 202.404 66.9738 202.588 67.4603 202.951C67.9409 203.308 68.291 203.96 68.4987 204.882C68.7242 205.854 68.8369 207.237 68.8369 209.002V210.571C66.6593 211.536 64.8495 212.397 63.467 213.129C62.031 213.892 60.9096 214.63 60.1382 215.325C59.3431 216.038 58.7853 216.813 58.4827 217.637C58.1801 218.449 58.0317 219.408 58.0317 220.491C58.0317 221.585 58.2691 222.575 58.7319 223.424C59.1947 224.279 59.8593 224.955 60.69 225.429C61.5207 225.902 62.5057 226.148 63.6153 226.148C65.0097 226.148 66.232 225.773 67.2526 225.029C67.9943 224.488 68.5818 223.855 69.0031 223.135C69.0268 223.289 69.0446 223.461 69.0743 223.645C69.1633 224.297 69.2404 224.918 69.2998 225.515L69.3235 225.767H71.9996L71.9402 225.435C71.9284 225.318 71.9046 225.035 71.8809 224.316ZM64.2146 223.701C63.4195 223.701 62.6719 223.442 61.9895 222.944C61.3368 222.465 61.0045 221.518 61.0045 220.14C61.0045 219.273 61.135 218.529 61.3961 217.926C61.6513 217.329 62.0785 216.782 62.6659 216.302C63.2712 215.804 64.1197 215.269 65.1877 214.71C66.1727 214.193 67.4069 213.566 68.8488 212.852V220.447C68.558 220.995 68.1842 221.524 67.7333 222.01C67.2704 222.514 66.7364 222.926 66.1549 223.233C65.5853 223.547 64.9326 223.701 64.2146 223.701Z" fill="#767878"/>
<path d="M88.1334 211.495H79.2389V200.523H76.2661V225.756H79.2389V213.801H88.1334V225.756H91.1477V200.523H88.1334V211.495Z" fill="#767878"/>
<path d="M93.354 202.829H99.5843V225.756H102.504V202.829H108.55V200.523H93.354V202.829Z" fill="#767878"/>
<path d="M122.353 200.523L113.452 220.006V200.523H110.806V225.756H113.304L122.163 206.439V225.756H124.809V200.523H122.353Z" fill="#767878"/>
</svg>
