<svg width="121" height="24" viewBox="0 0 121 24" fill="none" xmlns="http://www.w3.org/2000/svg">
<path d="M25.6558 23.09V5.63656H21V4.30356H31.953V5.63656H27.433V23.09H25.6558Z" fill="#767878"/>
<path d="M98.9263 23.09V4.30356H100.739V12.7848H102.381L107.344 4.30356H109.225L104.022 13.3702L109.429 23.09H107.548L102.381 13.9253H100.739V23.09H98.9263Z" fill="#767878"/>
<path d="M114.978 23.3793C114.181 23.3793 113.483 23.2056 112.89 22.8581C112.296 22.5107 111.835 22.0312 111.502 21.4119C111.17 20.7926 111.005 20.0865 111.005 19.2821C111.005 18.4816 111.113 17.783 111.331 17.1863C111.549 16.5897 111.942 16.0308 112.511 15.5135C113.079 14.9924 113.898 14.4449 114.957 13.8709C116.019 13.2969 117.392 12.6323 119.08 11.8733V10.5403C119.08 9.17334 118.994 8.11224 118.822 7.35323C118.651 6.59422 118.365 6.06557 117.968 5.7597C117.567 5.45761 117.027 5.30278 116.341 5.30278C115.815 5.30278 115.314 5.38963 114.835 5.56334C114.356 5.73704 113.963 6.0769 113.655 6.58668C113.348 7.09647 113.194 7.84791 113.194 8.84482V9.33194H111.413C111.413 7.53448 111.796 6.19395 112.561 5.31788C113.326 4.44181 114.61 4 116.412 4C118.078 4 119.241 4.49846 119.902 5.49537C120.564 6.49227 120.896 8.10848 120.896 10.3402V19.7995C120.896 19.9732 120.903 20.3017 120.914 20.7888C120.925 21.2759 120.936 21.748 120.95 22.2011C120.961 22.658 120.979 22.9488 121 23.0772H119.427C119.38 22.6203 119.323 22.1444 119.255 21.646C119.187 21.1475 119.141 20.7888 119.119 20.5736C118.822 21.3552 118.307 22.0161 117.578 22.5561C116.848 23.1112 115.983 23.3793 114.978 23.3793ZM115.425 21.9519C115.994 21.9519 116.509 21.8273 116.966 21.578C117.424 21.3288 117.832 21.0041 118.2 20.6038C118.565 20.2035 118.862 19.7768 119.09 19.3199V13.1421C117.882 13.7501 116.87 14.2674 116.062 14.7016C115.25 15.1359 114.613 15.5475 114.145 15.9364C113.677 16.3254 113.34 16.7634 113.137 17.2543C112.933 17.7452 112.829 18.3343 112.829 19.0254C112.829 20.1507 113.104 20.921 113.652 21.3326C114.191 21.7442 114.785 21.9519 115.425 21.9519Z" fill="#767878"/>
<path d="M41.6582 22.6693L41.6295 21.5289C41.6188 21.1362 41.6152 20.8719 41.6152 20.7322V13.1043C41.6152 11.2767 41.3363 9.92858 40.7856 9.1016C40.2206 8.25196 39.2301 7.82147 37.8355 7.82147C36.3408 7.82147 35.2573 8.1991 34.6101 8.93922C33.9664 9.67558 33.641 10.8046 33.641 12.2925V12.4661H35.4003V11.8997C35.4003 11.1332 35.5183 10.5516 35.7472 10.1703C35.9761 9.79642 36.2657 9.53964 36.6161 9.41502C36.9845 9.28286 37.3742 9.21488 37.7783 9.21488C38.2932 9.21488 38.7009 9.32817 38.9941 9.55096C39.2838 9.76998 39.4947 10.1703 39.6199 10.7367C39.7558 11.3333 39.8237 12.183 39.8237 13.2667V14.2296C38.5114 14.8225 37.4207 15.3511 36.5875 15.8005C35.7222 16.2687 35.0463 16.7219 34.5815 17.1486C34.1023 17.5866 33.7661 18.0624 33.5838 18.5684C33.4014 19.0669 33.312 19.656 33.312 20.3206C33.312 20.9927 33.455 21.6007 33.734 22.1218C34.0129 22.6467 34.4134 23.0621 34.914 23.3528C35.4146 23.6436 36.0082 23.7946 36.6769 23.7946C37.5173 23.7946 38.2539 23.5643 38.869 23.1074C39.3159 22.7751 39.67 22.3861 39.9238 21.9443C39.9381 22.0387 39.9489 22.1445 39.9668 22.2578C40.0204 22.658 40.0669 23.0394 40.1026 23.4057L40.1169 23.5605H41.7297L41.6939 23.3566C41.6868 23.2849 41.6689 23.1112 41.6582 22.6693ZM37.0381 22.2917C36.5589 22.2917 36.1084 22.1331 35.6971 21.8273C35.3038 21.5327 35.1035 20.9512 35.1035 20.1053C35.1035 19.5729 35.1822 19.116 35.3395 18.7459C35.4933 18.3796 35.7508 18.0436 36.1048 17.749C36.4695 17.4431 36.9809 17.1146 37.6245 16.771C38.2181 16.4538 38.9619 16.0686 39.8309 15.6306V20.2941C39.6557 20.6302 39.4304 20.955 39.1586 21.2533C38.8797 21.5629 38.5579 21.8159 38.2074 22.0047C37.8605 22.1973 37.4672 22.2917 37.0381 22.2917Z" fill="#767878"/>
<path d="M46.1776 15.1101C46.0488 16.6546 45.9022 17.9196 45.7377 18.8674C45.5768 19.8077 45.3766 20.5327 45.1441 21.0236C44.9224 21.4919 44.6471 21.8166 44.3217 21.9828C43.9855 22.1565 43.5636 22.2509 43.0773 22.266L42.9199 22.2697V23.682H43.3598C44.1178 23.682 44.7615 23.5499 45.28 23.2855C45.8057 23.0174 46.2384 22.553 46.5673 21.8997C46.8856 21.2653 47.1466 20.3892 47.3433 19.2941C47.5364 18.2141 47.708 16.817 47.8547 15.1366L48.3374 9.47233H51.9169V23.5461H53.7048V8.05249H46.7676L46.1776 15.1101Z" fill="#767878"/>
<path d="M64.3193 22.6693L64.2907 21.5289C64.28 21.1362 64.2764 20.8719 64.2764 20.7322V13.1043C64.2764 11.2767 63.9975 9.92858 63.4468 9.1016C62.8818 8.25196 61.8913 7.82147 60.4967 7.82147C59.0019 7.82147 57.9184 8.1991 57.2712 8.93922C56.6275 9.67558 56.3021 10.8046 56.3021 12.2925V12.4661H58.0615V11.8997C58.0615 11.1332 58.1795 10.5516 58.4083 10.1703C58.6372 9.79642 58.9268 9.53964 59.2773 9.41502C59.6456 9.28286 60.0354 9.21488 60.4394 9.21488C60.9544 9.21488 61.362 9.32817 61.6552 9.55096C61.9449 9.76998 62.1559 10.1703 62.281 10.7367C62.4169 11.3333 62.4849 12.183 62.4849 13.2667V14.2296C61.1725 14.8225 60.0818 15.3511 59.2487 15.8005C58.3833 16.2687 57.7075 16.7219 57.2426 17.1486C56.7634 17.5866 56.4273 18.0624 56.2449 18.5684C56.0625 19.0669 55.9731 19.656 55.9731 20.3206C55.9731 20.9927 56.1162 21.6007 56.3951 22.1218C56.674 22.6467 57.0745 23.0621 57.5751 23.3528C58.0758 23.6436 58.6694 23.7946 59.3381 23.7946C60.1784 23.7946 60.915 23.5643 61.5301 23.1074C61.9771 22.7751 62.3311 22.3861 62.585 21.9443C62.5993 22.0387 62.61 22.1445 62.6279 22.2578C62.6815 22.658 62.728 23.0394 62.7638 23.4057L62.7781 23.5605H64.3908L64.355 23.3566C64.3479 23.2849 64.3336 23.1112 64.3193 22.6693ZM59.6992 22.2917C59.2201 22.2917 58.7695 22.1331 58.3583 21.8273C57.9649 21.5327 57.7647 20.9512 57.7647 20.1053C57.7647 19.5729 57.8433 19.116 58.0007 18.7459C58.1544 18.3796 58.4119 18.0436 58.7659 17.749C59.1307 17.4431 59.642 17.1146 60.2857 16.771C60.8793 16.4538 61.6231 16.0686 62.492 15.6306V20.2941C62.3168 20.6302 62.0915 20.955 61.8197 21.2533C61.5408 21.5629 61.219 21.8159 60.8685 22.0047C60.5253 22.1973 60.1319 22.2917 59.6992 22.2917Z" fill="#767878"/>
<path d="M74.1137 14.797H68.7534V8.06033H66.9619V23.5539H68.7534V16.2131H74.1137V23.5539H75.9303V8.06033H74.1137V14.797Z" fill="#767878"/>
<path d="M77.2598 9.47639H81.0145V23.5539H82.7738V9.47639H86.4176V8.06033H77.2598V9.47639Z" fill="#767878"/>
<path d="M94.7351 8.06033L89.3712 20.0232V8.06033H87.7764V23.5539H89.2818L94.6206 11.693V23.5539H96.2155V8.06033H94.7351Z" fill="#767878"/>
<path d="M4.07557 3.78319C5.08353 3.78319 5.90064 2.9363 5.90064 1.8916C5.90064 0.846896 5.08353 0 4.07557 0C3.0676 0 2.25049 0.846896 2.25049 1.8916C2.25049 2.9363 3.0676 3.78319 4.07557 3.78319Z" fill="#F5C423"/>
<path d="M10.0335 19.7976C10.1542 19.9591 10.2845 20.2466 10.4236 20.6601C10.5619 21.0735 10.6227 21.4596 10.6059 21.8184C10.1382 22.1059 9.60023 22.3934 8.99427 22.6801C8.38751 22.9676 7.80234 23.2286 7.23955 23.4614C6.67596 23.6943 6.2035 23.8741 5.82297 24C5.3721 23.8558 4.87806 23.6313 4.34165 23.3264C3.80444 23.0215 3.32319 22.6577 2.8987 22.2352C2.47421 21.8134 2.2008 21.3867 2.08009 20.9551L2.65167 13.2503L0.649928 13.6546L0 11.8227L2.67726 9.42485L2.49499 7.26977C2.78918 6.94663 3.14492 6.62764 3.56062 6.31361C3.97632 5.99959 4.37523 5.76096 4.75655 5.5994L5.71825 6.29953L5.61433 10.0446C6.32501 9.97335 7.05728 9.92778 7.81113 9.90956C8.56498 9.89216 9.31404 9.91867 10.0591 9.99075L10.3189 12.1458L9.5131 13.0084C8.1269 12.9006 6.80066 12.8733 5.53598 12.9272C5.41447 13.735 5.32813 14.6158 5.27617 15.5678C5.22421 16.5198 5.22421 17.4585 5.27617 18.3832C5.32813 19.3087 5.44884 20.1572 5.63991 20.9294L10.0335 19.7976Z" fill="#53C3BD"/>
</svg>
