<svg width="54" height="70" viewBox="0 0 54 70" fill="none" xmlns="http://www.w3.org/2000/svg">
<path d="M24.6133 8.81371C26.9855 8.81371 28.9087 6.8906 28.9087 4.51832C28.9087 2.14604 26.9855 0.222931 24.6133 0.222931C22.241 0.222931 20.3179 2.14604 20.3179 4.51832C20.3179 6.8906 22.241 8.81371 24.6133 8.81371Z" fill="#EFCF47"/>
<path d="M38.6358 45.1787C38.9199 45.5456 39.2266 46.1985 39.5539 47.1373C39.8794 48.0762 40.0224 48.9529 39.9829 49.7676C38.8822 50.4205 37.616 51.0734 36.1899 51.7244C34.7618 52.3772 33.3846 52.9699 32.0601 53.4986C30.7336 54.0273 29.6217 54.4355 28.7261 54.7215C27.6649 54.3942 26.5022 53.8843 25.2397 53.1919C23.9754 52.4995 22.8427 51.6735 21.8437 50.714C20.8446 49.7563 20.2012 48.7874 19.9171 47.8071L21.2623 30.3114L16.5511 31.2295L15.0215 27.0696L21.3225 21.6246L20.8935 16.7309C21.5859 15.9972 22.4232 15.2728 23.4015 14.5597C24.3799 13.8467 25.3188 13.3048 26.2162 12.9379L28.4796 14.5277L28.235 23.032C29.9077 22.8702 31.6311 22.7667 33.4053 22.7253C35.1795 22.6858 36.9425 22.746 38.696 22.9097L39.3075 27.8034L37.4109 29.762C34.1485 29.5174 31.0271 29.4553 28.0506 29.5776C27.7647 31.412 27.5615 33.412 27.4392 35.5738C27.3169 37.7356 27.3169 39.8673 27.4392 41.9671C27.5615 44.0687 27.8456 45.9953 28.2952 47.7488L38.6358 45.1787Z" fill="#53C3BD"/>
<path d="M3.24166 69.0037V60.3076H0.791992V59.6434H6.55493V60.3076H4.17675V69.0037H3.24166Z" fill="#767878"/>
<path d="M41.793 69.0037V59.6434H42.7469V63.8692H43.6105L46.2219 59.6434H47.2116L44.4741 64.1608L47.3188 69.0037H46.3292L43.6105 64.4374H42.7469V69.0037H41.793Z" fill="#767878"/>
<path d="M50.2387 69.1486C49.8192 69.1486 49.4523 69.0621 49.14 68.889C48.8276 68.7159 48.5849 68.4769 48.41 68.1684C48.235 67.8598 48.1484 67.508 48.1484 67.1072C48.1484 66.7084 48.2049 66.3603 48.3197 66.063C48.4344 65.7657 48.6414 65.4873 48.9405 65.2295C49.2397 64.9699 49.6705 64.6971 50.2275 64.4111C50.7863 64.1251 51.5087 63.794 52.3968 63.4158V62.7516C52.3968 62.0705 52.3516 61.5418 52.2613 61.1637C52.171 60.7855 52.0205 60.5221 51.8117 60.3697C51.6009 60.2192 51.3168 60.142 50.9556 60.142C50.679 60.142 50.4156 60.1853 50.1635 60.2719C49.9114 60.3584 49.7044 60.5277 49.5426 60.7817C49.3808 61.0357 49.2999 61.4101 49.2999 61.9068V62.1496H48.3629C48.3629 61.254 48.5642 60.5861 48.9669 60.1496C49.3695 59.713 50.045 59.4929 50.9932 59.4929C51.87 59.4929 52.4815 59.7413 52.8295 60.238C53.1776 60.7347 53.3526 61.54 53.3526 62.6519V67.365C53.3526 67.4515 53.3563 67.6152 53.362 67.8579C53.3676 68.1006 53.3733 68.3358 53.3808 68.5616C53.3864 68.7893 53.3958 68.9341 53.4071 68.9981H52.5793C52.5548 68.7704 52.5247 68.5334 52.489 68.285C52.4532 68.0367 52.4288 67.8579 52.4175 67.7507C52.2613 68.1401 51.9904 68.4694 51.6066 68.7385C51.2228 69.015 50.7674 69.1486 50.2387 69.1486ZM50.4739 68.4374C50.7731 68.4374 51.044 68.3753 51.2848 68.2511C51.5257 68.127 51.7402 67.9652 51.9339 67.7657C52.1259 67.5663 52.282 67.3537 52.4024 67.126V64.048C51.7665 64.3509 51.234 64.6086 50.8088 64.825C50.3817 65.0414 50.0468 65.2464 49.8004 65.4402C49.5539 65.634 49.377 65.8523 49.2698 66.0969C49.1625 66.3415 49.108 66.635 49.108 66.9793C49.108 67.54 49.2529 67.9238 49.5407 68.1289C49.8248 68.3339 50.1371 68.4374 50.4739 68.4374Z" fill="#767878"/>
<path d="M11.6611 68.7949L11.6461 68.2267C11.6404 68.031 11.6385 67.8993 11.6385 67.8297V64.0291C11.6385 63.1185 11.4918 62.4468 11.202 62.0348C10.9048 61.6115 10.3836 61.397 9.64983 61.397C8.86338 61.397 8.29329 61.5851 7.95275 61.9539C7.61408 62.3208 7.44287 62.8833 7.44287 63.6246V63.7112H8.36855V63.429C8.36855 63.047 8.43064 62.7573 8.55105 62.5673C8.67147 62.381 8.82387 62.253 9.00825 62.191C9.20204 62.1251 9.40712 62.0912 9.61973 62.0912C9.89066 62.0912 10.1051 62.1477 10.2594 62.2587C10.4118 62.3678 10.5228 62.5673 10.5887 62.8495C10.6602 63.1467 10.6959 63.5701 10.6959 64.1101V64.5898C10.0054 64.8852 9.43158 65.1486 8.9932 65.3725C8.53788 65.6058 8.18228 65.8316 7.93769 66.0442C7.68558 66.2624 7.50872 66.4995 7.41277 66.7516C7.31681 67 7.26978 67.2935 7.26978 67.6246C7.26978 67.9595 7.34503 68.2624 7.49179 68.5221C7.63854 68.7836 7.84927 68.9906 8.11267 69.1354C8.37608 69.2803 8.6884 69.3556 9.04023 69.3556C9.48238 69.3556 9.86996 69.2408 10.1936 69.0132C10.4288 68.8476 10.615 68.6538 10.7486 68.4337C10.7561 68.4807 10.7618 68.5334 10.7712 68.5898C10.7994 68.7893 10.8239 68.9793 10.8427 69.1618L10.8502 69.2389H11.6987L11.6799 69.1373C11.6762 69.1016 11.6668 69.015 11.6611 68.7949ZM9.23026 68.6068C8.97815 68.6068 8.74108 68.5277 8.52471 68.3753C8.31775 68.2286 8.21239 67.9388 8.21239 67.5174C8.21239 67.2521 8.25378 67.0244 8.33657 66.8401C8.41747 66.6576 8.55294 66.4901 8.7392 66.3434C8.93111 66.191 9.20016 66.0273 9.53882 65.8561C9.85115 65.698 10.2425 65.5061 10.6997 65.2878V67.6115C10.6075 67.7789 10.489 67.9407 10.346 68.0894C10.1992 68.2436 10.0299 68.3697 9.8455 68.4638C9.663 68.5597 9.45604 68.6068 9.23026 68.6068Z" fill="#767878"/>
<path d="M14.0392 65.0282C13.9715 65.7977 13.8943 66.428 13.8078 66.9003C13.7231 67.3688 13.6178 67.73 13.4955 67.9746C13.3788 68.2079 13.2339 68.3697 13.0627 68.4525C12.8859 68.539 12.6639 68.5861 12.408 68.5936L12.3252 68.5955V69.2991H12.5566C12.9555 69.2991 13.2941 69.2333 13.567 69.1016C13.8435 68.968 14.0712 68.7366 14.2443 68.4111C14.4117 68.095 14.5491 67.6585 14.6526 67.1129C14.7542 66.5748 14.8445 65.8786 14.9216 65.0414L15.1756 62.2192H17.059V69.2314H17.9997V61.5117H14.3497L14.0392 65.0282Z" fill="#767878"/>
<path d="M23.584 68.7949L23.5689 68.2267C23.5633 68.031 23.5614 67.8993 23.5614 67.8297V64.0291C23.5614 63.1185 23.4146 62.4468 23.1249 62.0348C22.8276 61.6115 22.3065 61.397 21.5727 61.397C20.7862 61.397 20.2161 61.5851 19.8756 61.9539C19.5369 62.3208 19.3657 62.8833 19.3657 63.6246V63.7112H20.2914V63.429C20.2914 63.047 20.3535 62.7573 20.4739 62.5673C20.5943 62.381 20.7467 62.253 20.9311 62.191C21.1249 62.1251 21.33 62.0912 21.5426 62.0912C21.8135 62.0912 22.028 62.1477 22.1823 62.2587C22.3347 62.3678 22.4457 62.5673 22.5115 62.8495C22.583 63.1467 22.6188 63.5701 22.6188 64.1101V64.5898C21.9283 64.8852 21.3544 65.1486 20.916 65.3725C20.4607 65.6058 20.1051 65.8316 19.8605 66.0442C19.6084 66.2624 19.4316 66.4995 19.3356 66.7516C19.2397 67 19.1926 67.2935 19.1926 67.6246C19.1926 67.9595 19.2679 68.2624 19.4146 68.5221C19.5614 68.7836 19.7721 68.9906 20.0355 69.1354C20.2989 69.2803 20.6113 69.3556 20.9631 69.3556C21.4052 69.3556 21.7928 69.2408 22.1164 69.0132C22.3516 68.8476 22.5379 68.6538 22.6715 68.4337C22.679 68.4807 22.6846 68.5334 22.694 68.5898C22.7223 68.7893 22.7467 68.9793 22.7655 69.1618L22.7731 69.2389H23.6216L23.6028 69.1373C23.599 69.1016 23.5915 69.015 23.584 68.7949ZM21.1531 68.6068C20.901 68.6068 20.6639 68.5277 20.4476 68.3753C20.2406 68.2286 20.1352 67.9388 20.1352 67.5174C20.1352 67.2521 20.1766 67.0244 20.2594 66.8401C20.3403 66.6576 20.4758 66.4901 20.6621 66.3434C20.854 66.191 21.123 66.0273 21.4617 65.8561C21.774 65.698 22.1653 65.5061 22.6225 65.2878V67.6115C22.5303 67.7789 22.4118 67.9407 22.2688 68.0894C22.1221 68.2436 21.9527 68.3697 21.7684 68.4638C21.5877 68.5597 21.3808 68.6068 21.1531 68.6068Z" fill="#767878"/>
<path d="M28.7373 64.872H25.917V61.5155H24.9744V69.2351H25.917V65.5776H28.7373V69.2351H29.6931V61.5155H28.7373V64.872Z" fill="#767878"/>
<path d="M30.3931 62.221H32.3686V69.2351H33.2943V62.221H35.2115V61.5155H30.3931V62.221Z" fill="#767878"/>
<path d="M39.5879 61.5155L36.7657 67.476V61.5155H35.9265V69.2351H36.7186L39.5276 63.3254V69.2351H40.3668V61.5155H39.5879Z" fill="#767878"/>
</svg>
