<svg width="330" height="62" viewBox="0 0 330 62" fill="none" xmlns="http://www.w3.org/2000/svg">
<path d="M15.6569 59.5659V5.10488H0.31543V0.945445H36.4068V5.10488H21.5131V59.5659H15.6569Z" fill="#444444"/>
<path d="M257.091 59.5632V0.942736H263.065V27.4074H268.473L284.828 0.942736H291.026L273.881 29.2338L291.697 59.5632H285.5L268.473 30.9659H263.065V59.5632H257.091Z" fill="#444444"/>
<path d="M309.985 60.4704C307.357 60.4704 305.059 59.9284 303.103 58.8444C301.147 57.7603 299.627 56.2639 298.531 54.3314C297.436 52.399 296.894 50.1957 296.894 47.6859C296.894 45.1879 297.247 43.008 297.966 41.1463C298.685 39.2845 299.981 37.5407 301.854 35.9264C303.728 34.3003 306.426 32.5918 309.914 30.8008C313.413 29.0098 317.938 26.936 323.5 24.5676V20.4082C323.5 16.1427 323.217 12.8317 322.651 10.4633C322.086 8.09493 321.143 6.44535 319.835 5.49092C318.515 4.54828 316.736 4.06515 314.474 4.06515C312.742 4.06515 311.092 4.33617 309.513 4.87818C307.934 5.4202 306.638 6.4807 305.625 8.07141C304.612 9.66211 304.105 12.0069 304.105 15.1176V16.6376H298.237C298.237 11.0289 299.498 6.84592 302.019 4.11226C304.541 1.3786 308.771 0 314.71 0C320.2 0 324.03 1.55538 326.21 4.6661C328.39 7.77681 329.485 12.82 329.485 19.7837V49.3001C329.485 49.8422 329.509 50.8673 329.544 52.3873C329.58 53.9073 329.615 55.3802 329.662 56.7941C329.698 58.2199 329.756 59.1272 329.827 59.5278H324.643C324.489 58.1021 324.301 56.6173 324.077 55.062C323.853 53.5066 323.7 52.3873 323.629 51.7157C322.651 54.1547 320.955 56.2168 318.551 57.9017C316.147 59.6338 313.296 60.4704 309.985 60.4704ZM311.457 56.0165C313.331 56.0165 315.028 55.6276 316.536 54.8499C318.044 54.0722 319.387 53.0589 320.601 51.8099C321.803 50.5609 322.781 49.2294 323.535 47.8037V28.5267C319.552 30.4238 316.218 32.038 313.555 33.3931C310.88 34.7481 308.783 36.0324 307.239 37.2461C305.696 38.4597 304.588 39.8266 303.916 41.3584C303.245 42.8902 302.903 44.7284 302.903 46.8846C302.903 50.396 303.81 52.7997 305.613 54.084C307.392 55.3684 309.348 56.0165 311.457 56.0165Z" fill="#444444"/>
<path d="M68.3857 58.2553L68.2914 54.6968C68.2561 53.4714 68.2443 52.6466 68.2443 52.2106V28.4089C68.2443 22.7059 67.3252 18.4994 65.5107 15.919C63.6489 13.2678 60.385 11.9245 55.7897 11.9245C50.8644 11.9245 47.2941 13.1028 45.1614 15.4123C43.0405 17.71 41.9682 21.2331 41.9682 25.8756V26.4176H47.7654V24.6501C47.7654 22.2582 48.1543 20.4437 48.9084 19.2536C49.6625 18.0871 50.6169 17.2858 51.7717 16.897C52.9853 16.4846 54.2697 16.2724 55.6011 16.2724C57.2979 16.2724 58.6412 16.6259 59.6074 17.3211C60.5618 18.0046 61.257 19.2536 61.6694 21.021C62.1172 22.8827 62.341 25.5339 62.341 28.9157V31.9203C58.0167 33.7702 54.4228 35.4198 51.6774 36.822C48.8259 38.2831 46.5989 39.6971 45.0671 41.0285C43.4882 42.3954 42.3806 43.8801 41.7797 45.459C41.1787 47.0143 40.8842 48.8525 40.8842 50.9263C40.8842 53.0237 41.3555 54.9207 42.2746 56.5468C43.1936 58.1846 44.5133 59.4807 46.163 60.388C47.8126 61.2953 49.7685 61.7666 51.972 61.7666C54.741 61.7666 57.1683 61.0479 59.195 59.6222C60.6678 58.5853 61.8344 57.3716 62.6709 55.993C62.7181 56.2876 62.7534 56.6175 62.8124 56.971C62.9891 58.22 63.1423 59.4101 63.2601 60.553L63.3072 61.0361H68.6214L68.5035 60.3998C68.48 60.1759 68.4211 59.6339 68.3857 58.2553ZM53.1621 57.077C51.5831 57.077 50.0985 56.5821 48.7434 55.6277C47.4473 54.7086 46.7875 52.8941 46.7875 50.2547C46.7875 48.5933 47.0467 47.1675 47.5651 46.0127C48.0718 44.8698 48.9202 43.8212 50.0867 42.9021C51.2886 41.9477 52.9735 40.9225 55.0945 39.8503C57.0505 38.8605 59.5013 37.6586 62.3646 36.2918V50.8438C61.7872 51.8925 61.0449 52.9058 60.1494 53.8367C59.2303 54.8029 58.1698 55.5923 57.0151 56.1815C55.8721 56.7824 54.576 57.077 53.1621 57.077Z" fill="#444444"/>
<path d="M83.2795 34.6656C82.8553 39.4849 82.3722 43.4322 81.8302 46.3897C81.3 49.3237 80.6401 51.5861 79.8742 53.1179C79.1437 54.579 78.2364 55.5923 77.1641 56.1107C76.0565 56.6527 74.6661 56.9473 73.0637 56.9945L72.5452 57.0062V61.4131H73.9945C76.4925 61.4131 78.6134 61.0007 80.322 60.1759C82.0541 59.3393 83.4798 57.89 84.5639 55.8515C85.6125 53.872 86.4727 51.1383 87.1208 47.7212C87.757 44.3513 88.3226 39.9916 88.8057 34.7481L90.3964 17.0736H102.191V60.9889H108.083V12.6432H85.2237L83.2795 34.6656Z" fill="#444444"/>
<path d="M143.055 58.2553L142.96 54.6968C142.925 53.4713 142.913 52.6465 142.913 52.2106V28.4089C142.913 22.7059 141.994 18.4994 140.18 15.9189C138.318 13.2677 135.054 11.9244 130.459 11.9244C125.533 11.9244 121.963 13.1028 119.83 15.4122C117.709 17.7099 116.637 21.2331 116.637 25.8756V26.4175H122.434V24.6501C122.434 22.2581 122.823 20.4436 123.577 19.2535C124.331 18.087 125.286 17.2858 126.441 16.8969C127.654 16.4845 128.939 16.2724 130.27 16.2724C131.967 16.2724 133.31 16.6259 134.276 17.3211C135.231 18.0045 135.926 19.2535 136.338 21.021C136.786 22.8827 137.01 25.5339 137.01 28.9156V31.9203C132.686 33.7702 129.092 35.4198 126.346 36.822C123.495 38.283 121.268 39.697 119.736 41.0285C118.157 42.3953 117.05 43.88 116.449 45.4589C115.848 47.0143 115.553 48.8524 115.553 50.9263C115.553 53.0236 116.024 54.9206 116.943 56.5467C117.863 58.1845 119.182 59.4807 120.832 60.388C122.481 61.2953 124.437 61.7666 126.641 61.7666C129.41 61.7666 131.837 61.0479 133.864 59.6221C135.337 58.5852 136.503 57.3715 137.34 55.9929C137.387 56.2875 137.422 56.6175 137.481 56.9709C137.658 58.2199 137.811 59.41 137.929 60.553L137.976 61.036H143.29L143.172 60.3998C143.149 60.1759 143.102 59.6339 143.055 58.2553ZM127.831 57.077C126.252 57.077 124.767 56.5821 123.412 55.6277C122.116 54.7086 121.456 52.894 121.456 50.2546C121.456 48.5932 121.716 47.1674 122.234 46.0127C122.741 44.8697 123.589 43.8211 124.756 42.902C125.957 41.9476 127.642 40.9225 129.763 39.8502C131.719 38.8604 134.17 37.6585 137.033 36.2917V50.8438C136.456 51.8925 135.714 52.9058 134.818 53.8366C133.899 54.8028 132.839 55.5923 131.684 56.1814C130.553 56.7824 129.257 57.077 127.831 57.077Z" fill="#444444"/>
<path d="M175.328 33.6876H157.666V12.6667H151.762V61.0124H157.666V38.1062H175.328V61.0124H181.314V12.6667H175.328V33.6876Z" fill="#444444"/>
<path d="M185.697 17.0853H198.07V61.0124H203.867V17.0853H215.874V12.6667H185.697V17.0853Z" fill="#444444"/>
<path d="M243.281 12.6667L225.607 49.9952V12.6667H220.351V61.0124H225.312L242.904 24.0019V61.0124H248.159V12.6667H243.281Z" fill="#444444"/>
</svg>
