<svg width="117" height="153" viewBox="0 0 117 153" fill="none" xmlns="http://www.w3.org/2000/svg">
<path d="M53.031 19.4467C58.2627 19.4467 62.5038 15.2056 62.5038 9.97385C62.5038 4.74213 58.2627 0.500977 53.031 0.500977C47.7993 0.500977 43.5581 4.74213 43.5581 9.97385C43.5581 15.2056 47.7993 19.4467 53.031 19.4467Z" fill="#F5C423"/>
<path d="M83.9559 99.6445C84.5824 100.454 85.2588 101.893 85.9807 103.964C86.6986 106.034 87.0139 107.968 86.9268 109.765C84.4994 111.205 81.707 112.644 78.5618 114.08C75.4125 115.52 72.3752 116.827 69.4541 117.993C66.5288 119.159 64.0766 120.059 62.1015 120.69C59.7613 119.968 57.197 118.843 54.4128 117.316C51.6245 115.789 49.1266 113.968 46.9233 111.852C44.72 109.74 43.301 107.603 42.6744 105.441L45.6412 66.8567L35.2513 68.8816L31.8779 59.7075L45.774 47.6994L44.8279 36.907C46.3549 35.2888 48.2013 33.6913 50.3589 32.1187C52.5166 30.5461 54.5871 29.3511 56.5663 28.542L61.5579 32.0482L61.0185 50.803C64.7073 50.4462 68.508 50.218 72.4208 50.1267C76.3336 50.0396 80.2215 50.1723 84.0887 50.5333L85.4372 61.3257L81.2547 65.6451C74.0598 65.1057 67.1761 64.9688 60.6119 65.2385C59.9812 69.284 59.5331 73.6948 59.2634 78.4623C58.9937 83.2299 58.9937 87.931 59.2634 92.5617C59.5331 97.1964 60.1596 101.445 61.1513 105.312L83.9559 99.6445Z" fill="#53C3BD"/>
<path d="M5.89923 152.187V133.009H0.496826V131.544H13.2062V133.009H7.96143V152.187H5.89923Z" fill="white"/>
<path d="M90.9185 152.187V131.544H93.0221V140.864H94.9267L100.686 131.544H102.868L96.8312 141.507L103.105 152.187H100.922L94.9267 142.117H93.0221V152.187H90.9185Z" fill="white"/>
<path d="M109.545 152.507C108.619 152.507 107.81 152.316 107.121 151.935C106.433 151.553 105.897 151.026 105.512 150.345C105.126 149.665 104.935 148.889 104.935 148.005C104.935 147.125 105.059 146.358 105.312 145.702C105.566 145.047 106.022 144.433 106.682 143.864C107.341 143.292 108.292 142.69 109.52 142.059C110.752 141.428 112.345 140.698 114.304 139.864V138.399C114.304 136.897 114.204 135.731 114.005 134.897C113.806 134.063 113.474 133.483 113.014 133.146C112.549 132.815 111.922 132.644 111.126 132.644C110.516 132.644 109.935 132.74 109.379 132.931C108.823 133.122 108.366 133.495 108.009 134.055C107.653 134.615 107.474 135.441 107.474 136.536V137.072H105.408C105.408 135.097 105.852 133.624 106.74 132.661C107.628 131.698 109.117 131.213 111.209 131.213C113.142 131.213 114.491 131.761 115.258 132.856C116.026 133.951 116.412 135.727 116.412 138.18V148.574C116.412 148.764 116.42 149.125 116.433 149.661C116.445 150.196 116.457 150.715 116.474 151.213C116.486 151.715 116.507 152.034 116.532 152.175H114.706C114.652 151.673 114.586 151.15 114.507 150.603C114.428 150.055 114.374 149.661 114.35 149.424C114.005 150.283 113.408 151.009 112.561 151.603C111.715 152.213 110.711 152.507 109.545 152.507ZM110.063 150.939C110.723 150.939 111.321 150.802 111.852 150.528C112.383 150.254 112.856 149.897 113.283 149.457C113.706 149.018 114.051 148.549 114.316 148.047V141.258C112.914 141.926 111.74 142.495 110.802 142.972C109.86 143.449 109.121 143.901 108.578 144.329C108.034 144.756 107.644 145.238 107.408 145.777C107.171 146.316 107.051 146.964 107.051 147.723C107.051 148.959 107.37 149.806 108.005 150.258C108.632 150.71 109.321 150.939 110.063 150.939Z" fill="white"/>
<path d="M24.4674 151.726L24.4342 150.473C24.4218 150.042 24.4176 149.751 24.4176 149.598V141.216C24.4176 139.208 24.094 137.726 23.455 136.818C22.7994 135.884 21.6501 135.411 20.0318 135.411C18.2974 135.411 17.0402 135.826 16.2892 136.639C15.5423 137.448 15.1647 138.689 15.1647 140.324V140.515H17.2062V139.892C17.2062 139.05 17.3431 138.411 17.6086 137.992C17.8742 137.581 18.2103 137.299 18.6169 137.162C19.0443 137.017 19.4966 136.942 19.9654 136.942C20.5629 136.942 21.036 137.067 21.3762 137.312C21.7123 137.552 21.9571 137.992 22.1023 138.614C22.26 139.27 22.3388 140.204 22.3388 141.394V142.453C20.816 143.104 19.5505 143.685 18.5837 144.179C17.5796 144.693 16.7954 145.191 16.256 145.66C15.7 146.141 15.3099 146.664 15.0983 147.22C14.8867 147.768 14.783 148.415 14.783 149.145C14.783 149.884 14.9489 150.552 15.2726 151.125C15.5962 151.701 16.0609 152.158 16.6418 152.477C17.2228 152.797 17.9115 152.963 18.6875 152.963C19.6625 152.963 20.5173 152.71 21.231 152.208C21.7496 151.842 22.1604 151.415 22.455 150.93C22.4716 151.033 22.4841 151.149 22.5048 151.274C22.5671 151.714 22.621 152.133 22.6625 152.535L22.6791 152.705H24.5504L24.5089 152.481C24.5006 152.403 24.4799 152.212 24.4674 151.726ZM19.1065 151.311C18.5505 151.311 18.0277 151.137 17.5505 150.801C17.0941 150.477 16.8618 149.838 16.8618 148.909C16.8618 148.324 16.953 147.822 17.1356 147.415C17.314 147.013 17.6128 146.643 18.0236 146.32C18.4468 145.984 19.0401 145.623 19.787 145.245C20.4758 144.896 21.3389 144.473 22.3471 143.992V149.116C22.1438 149.486 21.8824 149.842 21.5671 150.17C21.2434 150.51 20.87 150.788 20.4634 150.996C20.0609 151.208 19.6045 151.311 19.1065 151.311Z" fill="white"/>
<path d="M29.7121 143.42C29.5628 145.117 29.3927 146.507 29.2018 147.548C29.0151 148.581 28.7827 149.378 28.513 149.917C28.2557 150.432 27.9362 150.789 27.5587 150.971C27.1686 151.162 26.679 151.266 26.1147 151.283L25.9321 151.287V152.839H26.4425C27.3221 152.839 28.069 152.693 28.6707 152.403C29.2806 152.108 29.7827 151.598 30.1644 150.88C30.5337 150.183 30.8366 149.22 31.0648 148.017C31.2889 146.83 31.4881 145.295 31.6582 143.449L32.2183 137.225H36.3718V152.689H38.4464V135.665H30.3968L29.7121 143.42Z" fill="white"/>
<path d="M50.7616 151.727L50.7284 150.474C50.716 150.042 50.7118 149.752 50.7118 149.598V141.216C50.7118 139.208 50.3882 137.727 49.7492 136.818C49.0936 135.885 47.9443 135.412 46.326 135.412C44.5916 135.412 43.3344 135.827 42.5833 136.64C41.8365 137.449 41.4589 138.69 41.4589 140.324V140.515H43.5003V139.893C43.5003 139.051 43.6373 138.412 43.9028 137.993C44.1684 137.582 44.5045 137.3 44.9111 137.163C45.3385 137.017 45.7908 136.943 46.2596 136.943C46.8571 136.943 47.3302 137.067 47.6704 137.312C48.0065 137.553 48.2513 137.993 48.3965 138.615C48.5542 139.27 48.633 140.204 48.633 141.395V142.453C47.1102 143.104 45.8447 143.685 44.8779 144.179C43.8738 144.694 43.0896 145.192 42.5502 145.66C41.9941 146.142 41.6041 146.665 41.3925 147.221C41.1809 147.768 41.0771 148.416 41.0771 149.146C41.0771 149.884 41.2431 150.552 41.5668 151.125C41.8904 151.702 42.3551 152.158 42.936 152.478C43.5169 152.797 44.2057 152.963 44.9816 152.963C45.9567 152.963 46.8115 152.71 47.5252 152.208C48.0438 151.843 48.4546 151.416 48.7492 150.93C48.7658 151.034 48.7783 151.15 48.799 151.274C48.8612 151.714 48.9152 152.133 48.9567 152.536L48.9733 152.706H50.8446L50.8031 152.482C50.7948 152.403 50.7782 152.212 50.7616 151.727ZM45.4007 151.312C44.8447 151.312 44.3219 151.138 43.8447 150.801C43.3883 150.478 43.1559 149.839 43.1559 148.909C43.1559 148.324 43.2472 147.822 43.4298 147.416C43.6082 147.013 43.907 146.644 44.3178 146.32C44.741 145.984 45.3343 145.623 46.0812 145.245C46.77 144.897 47.6331 144.474 48.6413 143.992V149.117C48.438 149.486 48.1766 149.843 47.8613 150.171C47.5376 150.511 47.1642 150.789 46.7575 150.996C46.3592 151.208 45.9028 151.312 45.4007 151.312Z" fill="white"/>
<path d="M62.1265 143.076H55.9067V135.673H53.8279V152.698H55.9067V144.632H62.1265V152.698H64.2344V135.673H62.1265V143.076Z" fill="white"/>
<path d="M65.7778 137.229H70.1346V152.698H72.1761V137.229H76.4042V135.673H65.7778V137.229Z" fill="white"/>
<path d="M86.0558 135.673L79.8318 148.818V135.673H77.9812V152.698H79.7281L85.923 139.665V152.698H87.7736V135.673H86.0558Z" fill="white"/>
</svg>
